<svg xmlns="http://www.w3.org/2000/svg" viewBox="0 0 73.94 120.56"><defs><style>.cls-1{fill:#222221;}</style></defs><title>logo</title><g id="Layer_2" data-name="Layer 2"><g id="tekst_website" data-name="tekst website"><path class="cls-1" d="M72.18,52.91a19.86,19.86,0,0,0-7.59-9.24A20.48,20.48,0,0,0,52.71,40H24.86a5.45,5.45,0,0,0-5.39,5.39,5.27,5.27,0,0,0,1.6,3.9,5.14,5.14,0,0,0,3.79,1.6h4.73a1.92,1.92,0,0,1,1.43.55,1.8,1.8,0,0,1,.55,1.32v6.49h0q0,.51-.06,1a10.83,10.83,0,0,1-.82,3A9.8,9.8,0,0,1,27,67.87a9.8,9.8,0,0,1-5.72,1.76,9.66,9.66,0,0,1-4.07-.77,11.12,11.12,0,0,1-4.62-3.74,11,11,0,0,1-1.76-5.83V21.12a9.63,9.63,0,0,1,.88-4,9.75,9.75,0,0,1,3.74-4.62,10.37,10.37,0,0,1,2.75-1.32,10.52,10.52,0,0,1,3.08-.44,9.63,9.63,0,0,1,4,.88,11.12,11.12,0,0,1,4.62,3.74,10.87,10.87,0,0,1,1.76,5.72A5.34,5.34,0,0,0,33.17,25a5.18,5.18,0,0,0,7.58,0,5.34,5.34,0,0,0,1.6-3.85,21.24,21.24,0,0,0-1.65-8.25A19.7,19.7,0,0,0,37.51,7.7,23.64,23.64,0,0,0,33,3.63,20.3,20.3,0,0,0,21.23,0h-.11A19.94,19.94,0,0,0,13,1.65a19.57,19.57,0,0,0-9.35,7.7A17.57,17.57,0,0,0,.88,14.9,22.05,22.05,0,0,0,0,21.12V59.29a21.24,21.24,0,0,0,1.65,8.25,20.48,20.48,0,0,0,3.19,5.22,22.68,22.68,0,0,0,4.51,4.13,21.33,21.33,0,0,0,20.13,2c.69-.31,1.35-.65,2-1v37.32a5.46,5.46,0,0,0,5.39,5.39,5.31,5.31,0,0,0,3.91-1.6,5.17,5.17,0,0,0,1.59-3.79V93a1.89,1.89,0,0,1,2-2H61.07a1.89,1.89,0,0,1,2,2v7.22a5.46,5.46,0,0,0,5.39,5.39,5.31,5.31,0,0,0,3.91-1.6,5.17,5.17,0,0,0,1.59-3.79v-39A21.23,21.23,0,0,0,72.18,52.91Zm-9.13,25.3a1.73,1.73,0,0,1-.55,1.37,2,2,0,0,1-1.43.5H44.35a2,2,0,0,1-1.43-.5,1.73,1.73,0,0,1-.55-1.37v-17a13.16,13.16,0,0,1,.17-2,6.73,6.73,0,0,1,.6-1.92,9.75,9.75,0,0,1,3.74-4.62,11,11,0,0,1,5.83-1.76,10.38,10.38,0,0,1,4.07.88,9.8,9.8,0,0,1,4.51,3.74,9.48,9.48,0,0,1,1.76,5.72Z"/></g></g></svg>